<?xml version="1.0" encoding="utf-8"?>
<!-- Generator: Adobe Illustrator 25.2.1, SVG Export Plug-In . SVG Version: 6.00 Build 0)  -->
<svg version="1.1" id="svg" xmlns="http://www.w3.org/2000/svg" xmlns:xlink="http://www.w3.org/1999/xlink" x="0px" y="0px"
	 viewBox="0 0 550 450" enable-background="new 0 0 550 450" xml:space="preserve">
<g id="Porta" transform="translate(200, 40)">
	<rect id="Pelicula" x="3.1" y="57" display="none" fill="#BC4646" width="149.6" height="236.8"/>
	<g id="Divisores" display="none">
		<rect id="Divisor-inf" x="14.1" y="210.4" display="inline" fill="#137009" width="127.6" height="4.3"/>
		<rect id="Divisor-sup" x="14.1" y="137" display="inline" fill="#137009" width="127.6" height="4.3"/>
		<rect id="Divisor-meio" x="14.1" y="173.1" display="inline" fill="#137009" width="127.6" height="4.3"/>
	</g>
	<g id="Perfis">
		<polygon id="Perf-Direita" fill="#D7D8D7" points="141.7,68 141.7,282.7 152.7,293.7 152.7,57"/> inf
		<polygon id="Perf-Superior" fill="#D7D8D7" points="152.7,57 3.1,57 14.1,68 141.7,68"/> dir
		<polygon id="Perf-Esquerda" fill="#D7D8D7" points="3.1,57 3.1,293.7 14.1,282.7 14.1,68"/> sup
		<polygon id="Perf-Inferior" fill="#D7D8D7" points="141.7,282.7 14.1,282.7 3.1,293.7 152.7,293.7"/> esq
	</g>
	<g id="Vidro">
		
			<image overflow="visible" opacity="0.35" enable-background="new    " width="113" height="196" id="Incolor" xlink:href="../Desktop/Vidro-incolor.png"  transform="matrix(1.324 0 0 1.2079 3.0703 56.9531)">
		</image>
		<g opacity="0.45">
			
				<linearGradient id="Reflexo_2_" gradientUnits="userSpaceOnUse" x1="-866.3295" y1="11.2539" x2="-590.8408" y2="11.2539" gradientTransform="matrix(-1.157490e-10 0.8594 0.8594 1.157490e-10 71.63 801.4086)">
				<stop  offset="0" style="stop-color:#DEF7FF"/>
				<stop  offset="9.815443e-02" style="stop-color:#BBD4DC"/>
				<stop  offset="0.2746" style="stop-color:#839CA4"/>
				<stop  offset="0.4461" style="stop-color:#546D75"/>
				<stop  offset="0.6084" style="stop-color:#304951"/>
				<stop  offset="0.7592" style="stop-color:#152E36"/>
				<stop  offset="0.8941" style="stop-color:#061F27"/>
				<stop  offset="1" style="stop-color:#001921"/>
			</linearGradient>
			<path id="Reflexo_1_" fill="url(#Reflexo_2_)" d="M10.7,67.7c-2.4-6,0.8-10.8,7.2-10.8h128.2c6.4,0,6.6-0.6,6.6,5.8v225.9
				c0,6.3-2,6.8-4.5,0.9L10.7,67.7z"/>
			
				<linearGradient id="Reflexo_3_" gradientUnits="userSpaceOnUse" x1="-947.7747" y1="-131.7277" x2="-672.286" y2="-131.7277" gradientTransform="matrix(3.858301e-11 -0.8594 -0.8594 -3.858301e-11 -35.2904 -520.8026)">
				<stop  offset="0" style="stop-color:#DEF7FF"/>
				<stop  offset="9.815443e-02" style="stop-color:#BBD4DC"/>
				<stop  offset="0.2746" style="stop-color:#839CA4"/>
				<stop  offset="0.4461" style="stop-color:#546D75"/>
				<stop  offset="0.6084" style="stop-color:#304951"/>
				<stop  offset="0.7592" style="stop-color:#152E36"/>
				<stop  offset="0.8941" style="stop-color:#061F27"/>
				<stop  offset="1" style="stop-color:#001921"/>
			</linearGradient>
			<path id="Reflexo" fill="url(#Reflexo_3_)" d="M151.9,282.9c2.5,6-0.8,10.8-7.6,10.8H10c-6.7,0-6.9,0.6-6.9-5.8V62
				c0-6.3,2.1-6.8,4.7-0.9L151.9,282.9z"/>
		</g>
	</g>
	<g id="Acabamento">
		<g id="acabamento-Direita">
			
				<image overflow="visible" opacity="0.3" enable-background="new    " width="33" height="268" xlink:href="../Desktop/C727B485.png"  transform="matrix(1 0 0 1 130 36)">
			</image>
			<g>
				<polygon fill="#D7D8D7" points="152.7,57 152.7,293.7 150.6,291.6 150.6,59 				"/>
			</g>
		</g>
		<g id="acabamento-Superior">
			
				<image overflow="visible" opacity="0.3" enable-background="new    " width="180" height="34" xlink:href="../Desktop/C727B486.png"  transform="matrix(1 0 0 1 -7 46)">
			</image>
			<g>
				<polygon fill="#D7D8D7" points="5.1,59 3.1,57 152.7,57 150.6,59 				"/>
			</g>
		</g>
		<g id="acabamento-Esquerda">
			
				<image overflow="visible" opacity="0.3" enable-background="new    " width="33" height="268" xlink:href="../Desktop/C727B484.png"  transform="matrix(1 0 0 1 -7 46)">
			</image>
			<g>
				<polygon fill="#D7D8D7" points="3.1,293.7 3.1,57 5.1,59 5.1,291.6 				"/>
			</g>
		</g>
		<g id="acabamento-Inferior">
			
				<image overflow="visible" opacity="0.3" enable-background="new    " width="180" height="33" xlink:href="../Desktop/C727B48C.png"  transform="matrix(1 0 0 1 -17 271)">
			</image>
			<g>
				<polygon fill="#D7D8D7" points="3.1,293.7 5.1,291.6 150.6,291.6 152.7,293.7 				"/>
			</g>
		</g>
	</g>
	<g id="Puxadores_2_" display="none">
		<g id="Puxador-superior" display="inline">
			<text id="tamanho-puxador-sup" transform="matrix(1 0 0 1 60.6853 44.96)" font-family="'ArialMT'" font-size="10.3125px">100mm</text>
			<rect id="Puxador-sup-int" x="3.1" y="46.8" fill="#AF0E0E" width="149.6" height="2.6"/>
			<rect id="Puxador-sup-trecho" x="56.4" y="46.8" fill="#AF0E0E" width="43" height="2.6"/>
		</g>
		<g id="Puxador-direita" display="inline">
			
				<text id="tamanho-puxador-dir_1_" transform="matrix(-1.346898e-10 1 -1 -1.346898e-10 165.0195 158.0955)" font-family="'ArialMT'" font-size="10.3125px">100mm</text>
			<rect id="Puxador-dir-int" x="159.6" y="56.9" fill="#AF0E0E" width="2.6" height="236.8"/>
			<rect id="Puxador-dir-trecho" x="159.6" y="153.8" fill="#AF0E0E" width="2.6" height="43"/>
		</g>
		<g id="Puxador-esquerda" display="inline">
			
				<text id="tamanho-puxador-esq" transform="matrix(4.489659e-11 -1 1 4.489659e-11 -8.3213 192.4824)" font-family="'ArialMT'" font-size="10.3125px">100mm</text>
			<rect id="Puxador-esq-int" x="-6" y="56.9" fill="#AF0E0E" width="2.6" height="236.8"/>
			<rect id="Puxador-esq-trecho" x="-6" y="153.8" fill="#AF0E0E" width="2.6" height="43"/>
		</g>
		<g id="Puxador-inferior" display="inline">
			<text id="tamanho-puxador-inf" transform="matrix(1 0 0 1 60.5996 313.127)" font-family="'ArialMT'" font-size="10.3125px">100mm</text>
			<rect id="Puxador-sup-int_1_" x="3" y="301.2" fill="#AF0E0E" width="149.6" height="2.6"/>
			<rect id="Puxador-sup-trecho_1_" x="56.4" y="301.2" display="none" fill="#AF0E0E" width="43" height="2.6"/>
		</g>
	</g>
	<g id="Perfis_Puxadores">
		<g id="PerfilPux_Direita_1_">
			
				<image overflow="visible" opacity="0.2" enable-background="new    " width="38" height="268" xlink:href="../Desktop/C727B48E.png"  transform="matrix(1 0 0 1 142 46)">
			</image>
			<g>
				<g>
					<g id="Cava-dir_10_" opacity="0.55">
						<g>
							
								<linearGradient id="SVGID_1_" gradientUnits="userSpaceOnUse" x1="-47.3661" y1="234.65" x2="-42.6584" y2="234.65" gradientTransform="matrix(1 0 0 -1 200 410)">
								<stop  offset="0" style="stop-color:#252525"/>
								<stop  offset="0.25" style="stop-color:#252525;stop-opacity:0.3"/>
								<stop  offset="0.5" style="stop-color:#F1F1F1"/>
								<stop  offset="0.5112" style="stop-color:#FFFFFF"/>
								<stop  offset="0.75" style="stop-color:#919191;stop-opacity:0.3"/>
								<stop  offset="1" style="stop-color:#252525"/>
							</linearGradient>
							<polyline fill="url(#SVGID_1_)" points="152.6,57 157.3,57 157.3,293.7 152.6,293.7 							"/>
						</g>
						<g opacity="0.51">
							<polyline fill="#4C2F12" points="152.6,57 157.3,57 157.3,293.7 152.6,293.7 							"/>
						</g>
					</g>
					<rect id="detalhe-dir_12_" x="157.3" y="57" fill="#D7D8D7" width="1.7" height="236.8"/>
				</g>
			</g>
		</g>
		<g id="PerfilPux_Esquerda_1_">
			
				<image overflow="visible" opacity="0.12" enable-background="new    " width="38" height="268" xlink:href="../Desktop/C727B48B.png"  transform="matrix(1 0 0 1 -24 36)">
			</image>
			<g>
				<g>
					<g id="Cava-esq_11_" opacity="0.55">
						<g>
							
								<linearGradient id="SVGID_2_" gradientUnits="userSpaceOnUse" x1="12.2564" y1="404.1025" x2="16.9641" y2="404.1025" gradientTransform="matrix(-1 0 0 1 15.3267 -228.7525)">
								<stop  offset="0" style="stop-color:#252525"/>
								<stop  offset="0.25" style="stop-color:#252525;stop-opacity:0.3"/>
								<stop  offset="0.5" style="stop-color:#F1F1F1"/>
								<stop  offset="0.5112" style="stop-color:#FFFFFF"/>
								<stop  offset="0.75" style="stop-color:#919191;stop-opacity:0.3"/>
								<stop  offset="1" style="stop-color:#252525"/>
							</linearGradient>
							<polyline fill="url(#SVGID_2_)" points="3.1,293.7 -1.6,293.7 -1.6,57 3.1,57 							"/>
						</g>
						<g opacity="0.51">
							<polyline fill="#4C2F12" points="3.1,293.7 -1.6,293.7 -1.6,57 3.1,57 							"/>
						</g>
					</g>
					<rect id="detalhe-esq_12_" x="-3.4" y="57" fill="#D7D8D7" width="1.7" height="236.8"/>
				</g>
			</g>
		</g>
		<g id="PerfilPux_Inferior_1_" display="none">
			
				<image display="inline" overflow="visible" opacity="0.2" enable-background="new    " width="180" height="38" xlink:href="../Desktop/C8BD16BB.png"  transform="matrix(1 0 0 1 -7 283)">
			</image>
			<g display="inline">
				<g>
					<g id="Cava-inf_10_" opacity="0.55">
						<g>
							
								<linearGradient id="SVGID_3_" gradientUnits="userSpaceOnUse" x1="121.4439" y1="354.4342" x2="126.1516" y2="354.4342" gradientTransform="matrix(-1.346898e-10 1 1 1.346898e-10 -276.5842 172.2673)">
								<stop  offset="0" style="stop-color:#252525"/>
								<stop  offset="0.25" style="stop-color:#252525;stop-opacity:0.3"/>
								<stop  offset="0.5" style="stop-color:#F1F1F1"/>
								<stop  offset="0.5112" style="stop-color:#FFFFFF"/>
								<stop  offset="0.75" style="stop-color:#919191;stop-opacity:0.3"/>
								<stop  offset="1" style="stop-color:#252525"/>
							</linearGradient>
							<polyline fill="url(#SVGID_3_)" points="152.6,293.7 152.6,298.4 3.1,298.4 3.1,293.7 							"/>
						</g>
						<g opacity="0.51">
							<polyline fill="#4C2F12" points="152.6,293.7 152.6,298.4 3.1,298.4 3.1,293.7 							"/>
						</g>
					</g>
					<rect id="detalhe-inf_12_" x="3.1" y="298.4" fill="#D7D8D7" width="149.6" height="1.7"/>
				</g>
			</g>
		</g>
		<g id="PerfilPux_Superior" display="none">
			
				<image display="inline" overflow="visible" opacity="0.12" enable-background="new    " width="180" height="37" xlink:href="../Desktop/C8BD16BF.png"  transform="matrix(1 0 0 1 -17 30)">
			</image>
			<g display="inline">
				<g>
					<g id="Cava-sup_10_" opacity="0.55">
						<g>
							
								<linearGradient id="SVGID_4_" gradientUnits="userSpaceOnUse" x1="186.0268" y1="190.754" x2="190.7344" y2="190.754" gradientTransform="matrix(2.244830e-10 -1 -1 -2.244830e-10 268.604 242.9802)">
								<stop  offset="0" style="stop-color:#252525"/>
								<stop  offset="0.25" style="stop-color:#252525;stop-opacity:0.3"/>
								<stop  offset="0.5" style="stop-color:#F1F1F1"/>
								<stop  offset="0.5112" style="stop-color:#FFFFFF"/>
								<stop  offset="0.75" style="stop-color:#919191;stop-opacity:0.3"/>
								<stop  offset="1" style="stop-color:#252525"/>
							</linearGradient>
							<polyline fill="url(#SVGID_4_)" points="3.1,57 3.1,52.2 152.6,52.2 152.6,57 							"/>
						</g>
						<g opacity="0.51">
							<polyline fill="#4C2F12" points="3.1,57 3.1,52.2 152.6,52.2 152.6,57 							"/>
						</g>
					</g>
					<rect id="detalhe-sup_12_" x="3.1" y="50.5" fill="#D7D8D7" width="149.6" height="1.7"/>
				</g>
			</g>
		</g>
	</g>
	<g id="Medida_Desenho">
		<text id="Medida-largura" transform="matrix(1 0 0 1 60.6856 352.6522)" font-family="'ArialMT'" font-size="10.3125px">100mm</text>
		<polygon id="Traco-largura" points="3.7,334.2 3.1,334.2 3.1,349 3.7,349 3.7,342.9 152,342.9 152,349 152.7,349 152.7,334.2 
			152,334.2 152,340.3 3.7,340.3 		"/>
		
			<text id="Medida-altura" transform="matrix(-1.346898e-10 1 -1 -1.346898e-10 212.3477 158.1368)" font-family="'ArialMT'" font-size="10.3125px">100mm</text>
		<polygon id="Traco-altura" points="214.6,57.9 214.6,57 199.9,57 199.9,57.9 206,57.9 206,292.7 199.9,292.7 199.9,293.7 
			214.6,293.7 214.6,292.7 208.5,292.7 208.5,57.9 		"/>
	</g>
</g>
</svg>
