<?xml version="1.0" encoding="utf-8"?>
<!-- Generator: Adobe Illustrator 25.2.1, SVG Export Plug-In . SVG Version: 6.00 Build 0)  -->
<svg version="1.1" id="Camada_1" xmlns="http://www.w3.org/2000/svg" xmlns:xlink="http://www.w3.org/1999/xlink" x="0px" y="0px"
	 viewBox="0 0 240.2 313.6" enable-background="new 0 0 240.2 313.6" xml:space="preserve">
<g id="Porta" transform="translate(115, 40)">
	<g id="Medida_Desenho">
		
			<text id="Medida-altura" transform="matrix(4.489659e-11 -1 1 4.489659e-11 121.8232 118.3545)" font-family="'ArialMT'" font-size="10.3125px">2000mm</text>
		<polygon id="Traco-altura" points="116.8,-18.2 116.8,-21.2 102,-21.2 102,-18.2 108.1,-18.2 108.1,216.6 102,216.6 102,219.6 
			116.8,219.6 116.8,216.6 110.7,216.6 110.7,-18.2 		"/>
		<text id="Medida-largura_1_" transform="matrix(1 0 0 1 -38.9028 270.2256)" font-family="'ArialMT'" font-size="10.3125px">2000mm</text>
		<polygon id="Traco-largura" points="-94.9,249.9 -96.8,249.9 -96.8,264.6 -94.9,264.6 -94.9,258.5 54.9,258.5 54.9,264.6 
			56.9,264.6 56.9,249.9 54.9,249.9 54.9,255.9 -94.9,255.9 		"/>
	</g>
	<rect id="Pelicula" x="-83.8" y="-8.2" fill="#BC4646" width="127.6" height="214.8"/>
	<g id="Vidro">
		
			<image overflow="visible" opacity="0.35" enable-background="new    " width="113" height="196" id="Incolor" xlink:href="../Pedidos/static/Pedidos/images/Vidro-incolor.png"  transform="matrix(1.1477 0 0 1.0957 -84.795 -8.1572)">
		</image>
		<g opacity="0.45">
			
				<linearGradient id="Reflexo_1_" gradientUnits="userSpaceOnUse" x1="-1249.1986" y1="-393.6278" x2="-997.4974" y2="-393.6278" gradientTransform="matrix(3.858301e-11 -0.8594 -0.8594 -3.858301e-11 -357.1362 -863.3613)">
				<stop  offset="0" style="stop-color:#DEF7FF"/>
				<stop  offset="9.815443e-02" style="stop-color:#BBD4DC"/>
				<stop  offset="0.2746" style="stop-color:#839CA4"/>
				<stop  offset="0.4461" style="stop-color:#546D75"/>
				<stop  offset="0.6084" style="stop-color:#304951"/>
				<stop  offset="0.7592" style="stop-color:#152E36"/>
				<stop  offset="0.8941" style="stop-color:#061F27"/>
				<stop  offset="1" style="stop-color:#001921"/>
			</linearGradient>
			<path id="Reflexo" fill="url(#Reflexo_1_)" d="M45,200.4c2.1,5.4-0.7,9.8-6.5,9.8H-72.8c-5.8,0-10.6-4.8-10.6-10.6V-1.5
				c0-5.8,1.8-6.2,4-0.8L45,200.4z"/>
		</g>
	</g>
	<g id="Divisores">
		<rect id="Divisor-inferior" x="-83.8" y="134.2" fill="#137009" width="127.6" height="4.3"/>
		<rect id="Divisor-superior" x="-83.8" y="60.9" fill="#137009" width="127.6" height="4.3"/>
		<rect id="Divisor-meio" x="-83.8" y="97" fill="#137009" width="127.6" height="4.3"/>
	</g>
	<g id="Perfis">
		<g id="Perfil-superior">
			<polygon id="barra_5_" fill="#C5C7C6" points="54.9,-19.2 -94.8,-19.2 -83.8,-8.2 43.9,-8.2 			"/>
			<polygon id="acabamento-int_5_" fill="#8E959C" points="-83.8,-8.2 43.9,-8.2 41.9,-6.1 -81.7,-6.1 			"/>
			<polygon id="acabamento-ext_5_" fill="#8E959C" points="-94.8,-19.2 -96.8,-21.2 56.9,-21.2 54.9,-19.2 			"/>
		</g>
		<g id="Perfil-direita">
			<polygon id="barra" fill="#C4C7C5" points="43.9,-8.2 43.9,206.6 54.9,217.6 54.9,-19.2 			"/>
			<polygon id="acabamento-int" fill="#8E959C" points="41.9,204.5 43.9,206.6 43.9,-8.2 41.9,-6.1 			"/>
			<polygon id="acabamento-ext" fill="#8E959C" points="56.9,-21.2 56.9,219.6 54.9,217.6 54.9,-19.2 			"/>
		</g>
		<g id="Perfil-esquerda">
			<polygon id="barra_4_" fill="#C4C7C5" points="-94.8,-19.2 -94.8,217.6 -83.8,206.6 -83.8,-8.2 			"/>
			<polygon id="acabamento-int_4_" fill="#989EA6" points="-81.7,-6.1 -83.8,-8.2 -83.8,206.6 -81.7,204.5 			"/>
			<polygon id="acabamento-ext_2_" fill="#8E959C" points="-96.8,219.6 -96.8,-21.2 -94.8,-19.2 -94.8,217.6 			"/>
		</g>
		<g id="Perfil-inferior">
			<polygon id="barra_3_" fill="#C4C7C5" points="43.9,206.6 -83.8,206.6 -94.8,217.6 54.9,217.6 			"/>
			<polygon id="acabamento-int_2_" fill="#8E959C" points="43.9,206.6 -83.8,206.6 -81.7,204.5 41.9,204.5 			"/>
			<polygon id="acabamento-ext_1_" fill="#989EA6" points="-96.8,219.6 -94.8,217.6 54.9,217.6 56.9,219.6 			"/>
		</g>
	</g>
	<g id="Puxadores_2_">
		<g id="Puxador-superior">
			<rect id="Puxador-superior-int" x="-96.8" y="-29.3" fill="#AF0E0E" width="153.7" height="2.6"/>
			<rect id="Puxador-superior-trecho" x="-41.5" y="-29.3" fill="#AF0E0E" width="43" height="2.6"/>
			
				<text id="tamanho-puxador-superior" transform="matrix(1 0 0 1 -35.896 -31.1504)" font-family="'ArialMT'" font-size="10.3125px">100mm</text>
		</g>
		<g id="Puxador-direita">
			<rect id="Puxador-direita-int" x="61.7" y="-21.2" fill="#AF0E0E" width="2.6" height="240.8"/>
			<rect id="Puxador-direita-trecho" x="61.7" y="77.7" fill="#AF0E0E" width="2.6" height="43"/>
			
				<text id="tamanho-puxador-direita" transform="matrix(-1.346898e-10 1 -1 -1.346898e-10 67.1895 83.3589)" font-family="'ArialMT'" font-size="10.3125px">100mm</text>
		</g>
		<g id="Puxador-esquerda">
			<rect id="Puxador-esquerda-int" x="-103.8" y="-21.2" fill="#AF0E0E" width="2.6" height="240.8"/>
			<rect id="Puxador-esquerda-trecho" x="-103.8" y="77.7" fill="#AF0E0E" width="2.6" height="43"/>
			
				<text id="tamanho-puxador-esquerda" transform="matrix(4.489659e-11 -1 1 4.489659e-11 -106.1504 115.709)" font-family="'ArialMT'" font-size="10.3125px">100mm</text>
		</g>
		<g id="Puxador-inferior">
			<rect id="Puxador-inferior-int" x="-96.9" y="225.1" fill="#AF0E0E" width="153.7" height="2.6"/>
			<rect id="Puxador-inferior-trecho" x="-41.5" y="225.1" fill="#AF0E0E" width="43" height="2.6"/>
			
				<text id="tamanho-puxador-inferior" transform="matrix(1 0 0 1 -34.8232 237.0166)" font-family="'ArialMT'" font-size="10.3125px">100mm</text>
		</g>
	</g>
	<g id="Perfis_Puxadores">
		<g id="PerfilPux_superior">
			<polygon id="Barra_2_" fill="#AF0E0E" points="57,-21.2 57,-26.9 -96.8,-26.9 -96.8,-21.2 -96.7,-21.2 -94.7,-19.2 -83.7,-8.2 
				43.9,-8.2 54.9,-19.2 			"/>
			<polygon id="Acabamento-Int" fill="#661D1D" points="-83.7,-8.2 43.9,-8.2 42,-6.1 -81.6,-6.1 			"/>
			<rect id="Acabamento-ext_2_" x="-96.8" y="-26.8" fill="#661D1D" width="153.8" height="1.6"/>
		</g>
		<g id="PerfilPux_direita">
			<polygon id="barra_1_" fill="#AF0E0E" points="56.8,-21.2 56.8,-21.2 54.8,-19.2 43.8,-8.2 43.8,206.6 54.8,217.6 56.8,219.6 
				56.8,219.6 60.1,219.6 60.1,-21.2 			"/>
			<polygon id="acabamento-int_3_" fill="#661D1D" points="41.8,204.5 43.8,206.6 43.8,-8.2 41.8,-6.1 			"/>
			<rect id="Acabamento-ext" x="60.1" y="-21.2" fill="#661D1D" width="1.6" height="240.8"/>
		</g>
		<g id="PerfilPux_esquerda">
			<polygon id="barra_2_" fill="#AF0E0E" points="-96.7,219.6 -96.7,219.6 -94.7,217.5 -83.7,206.5 -83.7,-8.2 -94.7,-19.2 
				-96.7,-21.2 -96.7,-21.2 -100,-21.2 -100,219.6 			"/>
			<polygon id="acabamento-int_1_" fill="#661D1D" points="-81.7,-6.2 -83.7,-8.2 -83.7,206.5 -81.7,204.5 			"/>
			<rect id="Acabamento-ext_1_" x="-101.7" y="-21.2" fill="#661D1D" width="1.6" height="240.8"/>
		</g>
		<g id="PerfilPux_inferior">
			<polygon id="Barra_3_" fill="#AF0E0E" points="-96.8,219.6 -96.8,225.2 57,225.2 57,219.6 56.9,219.6 54.9,217.5 43.9,206.5 
				-83.8,206.5 -94.8,217.5 			"/>
			<polygon id="Acabamento-Int_1_" fill="#661D1D" points="43.9,206.5 -83.8,206.5 -81.8,204.5 41.8,204.5 			"/>
			<rect id="Acabamento-ext_3_" x="-96.8" y="223.6" fill="#661D1D" width="153.8" height="1.6"/>
		</g>
	</g>
</g>
</svg>
