<?xml version="1.0" encoding="utf-8"?>
<!-- Generator: Adobe Illustrator 25.2.1, SVG Export Plug-In . SVG Version: 6.00 Build 0)  -->
<svg version="1.1" id="Layer_1" xmlns="http://www.w3.org/2000/svg" xmlns:xlink="http://www.w3.org/1999/xlink" x="0px" y="0px"
	 viewBox="0 0 291.3 375.7" style="enable-background:new 0 0 291.3 375.7;" xml:space="preserve">
<style type="text/css">
	.st0{display:none;fill:#BC4646;}
	.st1{opacity:0.45;}
	.st2{fill:url(#Reflexo_1_);}
	.st3{fill:#C5C7C6;}
	.st4{fill:#8E959C;}
	.st5{font-family:'MyriadPro-Regular';}
	.st6{font-size:12px;}
	.st7{fill:#C4C7C5;}
	.st8{fill:#989EA6;}
	.st9{display:none;}
	.st10{display:inline;}
	.st11{fill:#AF0E0E;}
	.st12{display:inline;fill:#AF0E0E;}
	.st13{display:inline;fill:#661D1D;}
</style>
<g id="Porta">
	<rect id="Pelicula" x="49.1" y="48.8" class="st0" width="148.5" height="250"/>
	<g id="Vidro">
		
			<image style="overflow:visible;opacity:0.35;enable-background:new    ;" width="113" height="196" id="Incolor" xlink:href="../Pedidos/static/Pedidos/images/Vidro-incolor.png"  transform="matrix(1.3355 0 0 1.3355 47.9709 42.1213)">
		</image>
		<g class="st1">
			
				<linearGradient id="Reflexo_1_" gradientUnits="userSpaceOnUse" x1="-425.0914" y1="403.9313" x2="-174.6523" y2="403.9313" gradientTransform="matrix(4.489659e-11 -1 1 4.489659e-11 -279.3494 -122.2008)">
				<stop  offset="0" style="stop-color:#DEF7FF"/>
				<stop  offset="9.815443e-02" style="stop-color:#BBD4DC"/>
				<stop  offset="0.2746" style="stop-color:#839CA4"/>
				<stop  offset="0.4461" style="stop-color:#546D75"/>
				<stop  offset="0.6084" style="stop-color:#304951"/>
				<stop  offset="0.7592" style="stop-color:#152E36"/>
				<stop  offset="0.8941" style="stop-color:#061F27"/>
				<stop  offset="1" style="stop-color:#001921"/>
			</linearGradient>
			<path id="Reflexo" class="st2" d="M198.9,291.5c2.5,6.3-0.8,11.4-7.6,11.4H61.8c-6.7,0-12.3-5.5-12.3-12.3V57.8
				c0-6.7,2.1-7.2,4.7-0.9L198.9,291.5z"/>
		</g>
	</g>
	<g id="Perfis">
		<g id="Superior_1_">
			<polygon id="barra_5_" class="st3" points="210.4,36 36.3,36 49.1,48.8 197.6,48.8 			"/>
			<polygon id="acabamento-int_5_" class="st4" points="49.1,48.8 197.6,48.8 195.3,51.2 51.5,51.2 			"/>
			<polygon id="acabamento-ext_5_" class="st4" points="36.3,36 33.9,33.6 212.8,33.6 210.4,36 			"/>
			<text id="modelo-perfil-sup" transform="matrix(1 0 0 1 111.3038 60.4512)" class="st5 st6">3579</text>
		</g>
		<g id="Direita">
			<polygon id="barra" class="st7" points="197.6,48.8 197.6,298.7 210.4,311.5 210.4,36 			"/>
			<polygon id="acabamento-int" class="st4" points="195.3,296.3 197.6,298.7 197.6,48.8 195.3,51.2 			"/>
			<polygon id="acabamento-ext" class="st4" points="212.8,33.6 212.8,313.8 210.4,311.5 210.4,36 			"/>
			<text id="modelo-perfil-dir" transform="matrix(4.489659e-11 -1 1 4.489659e-11 193.2155 186.0054)" class="st5 st6">3579</text>
		</g>
		<g id="Esquerda_1_">
			<polygon id="barra_4_" class="st7" points="36.3,36 36.3,311.5 49.1,298.7 49.1,48.8 			"/>
			<polygon id="acabamento-int_4_" class="st8" points="51.5,51.2 49.1,48.8 49.1,298.7 51.5,296.3 			"/>
			<polygon id="acabamento-ext_2_" class="st4" points="33.9,313.8 33.9,33.6 36.3,36 36.3,311.5 			"/>
			<text id="modelo-perfil-esq" transform="matrix(-1.346898e-10 1 -1 -1.346898e-10 53.9048 161.3821)" class="st5 st6">3579</text>
		</g>
		<g id="Inferior">
			<polygon id="barra_3_" class="st7" points="197.6,298.7 49.1,298.7 36.3,311.5 210.4,311.5 			"/>
			<polygon id="acabamento-int_2_" class="st4" points="197.6,298.7 49.1,298.7 51.5,296.3 195.3,296.3 			"/>
			<polygon id="acabamento-ext_1_" class="st8" points="33.9,313.8 36.3,311.5 210.4,311.5 212.8,313.8 			"/>
			<text id="modelo-perfil-inf" transform="matrix(1 0 0 1 111.3039 294.2693)" class="st5 st6">3579</text>
		</g>
	</g>
	<g id="Puxadores_2_" class="st9">
		<g id="Superior" class="st10">
			
				<rect id="Puxador-sup-int" x="121.8" y="-63.8" transform="matrix(-6.548380e-11 1 -1 -6.548380e-11 148.9933 -97.6378)" class="st11" width="3" height="178.9"/>
			
				<rect id="Puxador-sup-trecho" x="121.8" y="0.7" transform="matrix(-5.517649e-11 1 -1 -5.517649e-11 148.9933 -97.6378)" class="st11" width="3" height="50"/>
			<text id="modelo-puxador-sup" transform="matrix(1 0 0 1 111.7249 10.0441)" class="st5 st6">3579</text>
			<text id="tamanho-puxador-sup" transform="matrix(1 0 0 1 104.795 22.0441)" class="st5 st6">100mm</text>
		</g>
		<g id="Direita_1_" class="st10">
			
				<rect id="Puxador-dir-int" x="218.4" y="33.6" transform="matrix(-1 -5.699497e-11 5.699497e-11 -1 439.836 347.3813)" class="st11" width="3" height="280.2"/>
			
				<rect id="Puxador-dir-trecho" x="218.4" y="148.7" transform="matrix(-1 -1.030743e-11 1.030743e-11 -1 439.836 347.3813)" class="st11" width="3" height="50"/>
			<text id="modelo-puxador-dir_1_" transform="matrix(-1.346898e-10 1 -1 -1.346898e-10 237.7495 162.2212)" class="st5 st6">3579</text>
			<text id="tamanho-puxador-dir_1_" transform="matrix(-1.346898e-10 1 -1 -1.346898e-10 224.7495 155.2915)" class="st5 st6">100mm</text>
		</g>
		<g id="Esquerda" class="st10">
			
				<rect id="Puxador-esq-int" x="25.8" y="33.6" transform="matrix(-1 -5.699497e-11 5.699497e-11 -1 54.6272 347.3813)" class="st11" width="3" height="280.2"/>
			
				<rect id="Puxador-esq-trecho" x="25.8" y="148.7" transform="matrix(-1 -1.030743e-11 1.030743e-11 -1 54.6272 347.3813)" class="st11" width="3" height="50"/>
			<text id="modelo-puxador-esq" transform="matrix(4.489659e-11 -1 1 4.489659e-11 10.0441 186.0054)" class="st5 st6">3579</text>
			<text id="tamanho-puxador-esq" transform="matrix(4.489659e-11 -1 1 4.489659e-11 23.0441 192.9351)" class="st5 st6">100mm</text>
		</g>
		<g id="Inferior_1_" class="st10">
			
				<rect id="Puxador-sup-int_1_" x="121.8" y="232.3" transform="matrix(-6.548380e-11 1 -1 -6.548380e-11 445.025 198.3939)" class="st11" width="3" height="178.9"/>
			
				<rect id="Puxador-sup-trecho_1_" x="121.8" y="296.7" transform="matrix(-5.517649e-11 1 -1 -5.517649e-11 445.025 198.3939)" class="st11" width="3" height="50"/>
			<text id="modelo-puxador-inf" transform="matrix(1 0 0 1 112.9735 335.0945)" class="st5 st6">3579</text>
			<text id="tamanho-puxador-inf" transform="matrix(1 0 0 1 106.0433 347.0926)" class="st5 st6">100mm</text>
		</g>
	</g>
	<g id="Perfis_Puxadores">
		<g id="PerfilPux_Superior" class="st9">
			<polygon id="Barra_2_" class="st12" points="212.9,33.6 212.9,27 33.9,27 33.9,33.6 34,33.6 36.4,36 49.2,48.8 197.7,48.8 
				210.5,36 212.9,33.6 			"/>
			<polygon id="Acabamento-Int" class="st13" points="49.2,48.8 197.7,48.8 195.4,51.2 51.6,51.2 			"/>
			
				<rect id="Acabamento-ext_2_" x="122.4" y="-61.5" transform="matrix(2.870599e-11 -1 1 2.870599e-11 95.38 151.3623)" class="st13" width="1.9" height="179"/>
		</g>
		<g id="PerfilPux_Direita_1_" class="st9">
			<polygon id="barra_1_" class="st12" points="212.7,33.6 212.7,33.6 210.3,36 197.5,48.8 197.5,298.7 210.3,311.5 212.7,313.8 
				212.7,313.8 216.5,313.8 216.5,33.6 			"/>
			<polygon id="acabamento-int_3_" class="st13" points="195.2,296.3 197.5,298.7 197.5,48.8 195.2,51.2 			"/>
			<rect id="Acabamento-ext" x="216.5" y="33.6" class="st13" width="1.9" height="280.2"/>
		</g>
		<g id="PerfilPux_Esquerda_1_" class="st9">
			<polygon id="barra_2_" class="st12" points="34,313.8 34,313.8 36.4,311.4 49.2,298.6 49.2,48.7 36.4,35.9 34,33.6 34,33.6 
				30.2,33.6 30.2,313.8 			"/>
			<polygon id="acabamento-int_1_" class="st13" points="51.5,51.1 49.2,48.7 49.2,298.6 51.5,296.2 			"/>
			
				<rect id="Acabamento-ext_1_" x="28.3" y="33.6" transform="matrix(-1 -8.994507e-11 8.994507e-11 -1 58.4271 347.3813)" class="st13" width="1.9" height="280.2"/>
		</g>
		<g id="PerfilPux_Inferior_1_" class="st9">
			<polygon id="Barra_3_" class="st12" points="33.9,313.8 33.9,320.3 212.9,320.3 212.9,313.8 212.8,313.8 210.4,311.4 
				197.6,298.6 49.1,298.6 36.3,311.4 33.9,313.8 			"/>
			<polygon id="Acabamento-Int_1_" class="st13" points="197.6,298.6 49.1,298.6 51.4,296.2 195.2,296.2 			"/>
			
				<rect id="Acabamento-ext_3_" x="122.4" y="229.9" transform="matrix(2.870599e-11 -1 1 2.870599e-11 -196.015 442.7573)" class="st13" width="1.9" height="179"/>
		</g>
	</g>
</g>
<g id="Medida_Desenho">
	<text id="medida-pe-altura" transform="matrix(4.489659e-11 -1 1 4.489659e-11 288.3225 196.0132)" class="st5 st6">2000mm</text>
	<polygon id="traco-pe-altura" points="282.5,37.1 282.5,33.6 265.3,33.6 265.3,37.1 272.4,37.1 272.4,310.3 265.3,310.3 
		265.3,313.8 282.5,313.8 282.5,310.3 275.4,310.3 275.4,37.1 	"/>
	<polygon id="Medida-pe-largura" points="36.1,349.1 33.9,349.1 33.9,366.2 36.1,366.2 36.1,359.1 210.5,359.1 210.5,366.2 
		212.8,366.2 212.8,349.1 210.5,349.1 210.5,356.1 36.1,356.1 	"/>
</g>
<text id="medida-pe-altura_1_" transform="matrix(1 0 0 1 101.2962 372.7368)" class="st5 st6">2000mm</text>
</svg>
