<?xml version="1.0" encoding="utf-8"?>
<!-- Generator: Adobe Illustrator 25.2.1, SVG Export Plug-In . SVG Version: 6.00 Build 0)  -->
<svg version="1.1" id="svg" xmlns="http://www.w3.org/2000/svg" xmlns:xlink="http://www.w3.org/1999/xlink" x="0px" y="0px"
	 viewBox="0 0 550 450" style="enable-background:new 0 0 550 450;" xml:space="preserve">
<style type="text/css">
	.st0{fill:#D7D8D7;}
	.st1{display:none;fill:#F4FDFF;}
	.st2{display:none;}
	.st3{display:inline;fill:#137009;}
	.st4{display:inline;opacity:0.45;}
	.st5{fill:url(#Reflexo_1_);}
	.st6{display:inline;}
	.st7{font-family:'ArialMT';}
	.st8{font-size:10.3125px;}
	.st9{fill:#AF0E0E;}
	.st10{opacity:0.55;}
	.st11{fill:url(#SVGID_1_);}
	.st12{opacity:0.51;}
	.st13{fill:#4C2F12;}
	.st14{fill:url(#SVGID_2_);}
	.st15{fill:url(#SVGID_3_);}
	.st16{fill:url(#SVGID_4_);}
</style>
<g id="Porta" transform="translate(200, 40)">
	<g id="Perfis">
		<polygon id="Perf-D" class="st0" points="3.1,57 3.1,293.7 14.1,282.7 14.1,68 		"/>
		<polygon id="Perf-C" class="st0" points="141.7,282.7 14.1,282.7 3.1,293.7 152.7,293.7 		"/>
		<polygon id="Perf-B" class="st0" points="141.7,68 141.7,282.7 152.7,293.7 152.7,57 		"/>
		<polygon id="Perf-A" class="st0" points="152.7,57 3.1,57 14.1,68 141.7,68 		"/>
	</g>
	<rect id="Pelicula" x="3.1" y="57" class="st1" width="149.6" height="236.8"/>
	<g id="Divisores" class="st2">
		<rect id="Divisor-C" x="14.1" y="210.4" class="st3" width="127.6" height="4.3"/>
		<rect id="Divisor-B" x="14.1" y="173.1" class="st3" width="127.6" height="4.3"/>
		<rect id="Divisor-A" x="14.1" y="137" class="st3" width="127.6" height="4.3"/>
	</g>
	<g id="Vidro" class="st2">
		
			<image style="display:inline;overflow:visible;opacity:0.35;enable-background:new    ;" width="113" height="196" id="Incolor" xlink:href="../../Documents/Sistema/Pedidos/static/Pedidos/images/Vidro-incolor.png"  transform="matrix(1.324 0 0 1.2079 3.0703 56.9531)">
		</image>
		<g class="st4">
			
				<linearGradient id="Reflexo_1_" gradientUnits="userSpaceOnUse" x1="-1130.3203" y1="526.6828" x2="-854.8268" y2="526.6828" gradientTransform="matrix(3.858301e-11 -0.8594 0.8594 3.858301e-11 -374.7534 -677.6826)">
				<stop  offset="0" style="stop-color:#DEF7FF"/>
				<stop  offset="9.815443e-02" style="stop-color:#BBD4DC"/>
				<stop  offset="0.2746" style="stop-color:#839CA4"/>
				<stop  offset="0.4461" style="stop-color:#546D75"/>
				<stop  offset="0.6084" style="stop-color:#304951"/>
				<stop  offset="0.7592" style="stop-color:#152E36"/>
				<stop  offset="0.8941" style="stop-color:#061F27"/>
				<stop  offset="1" style="stop-color:#001921"/>
			</linearGradient>
			<path id="Reflexo" class="st5" d="M152.5,293.3H3.3C2.8,305.2,3.3,57,3.3,57c8.8,0,143.2-0.1,149.2,0
				C152.5,57,152.9,301.6,152.5,293.3z"/>
		</g>
	</g>
	<g id="Acabamento" class="st2">
		<g id="Acabamento-D" class="st6">
			
				<image style="overflow:visible;opacity:0.3;enable-background:new    ;" width="33" height="268" xlink:href="../../Documents/Sistema/Pedidos/static/Pedidos/images/C727B484.png"  transform="matrix(1 0 0 0.9508 -7 46)">
			</image>
			<g>
				<polygon class="st0" points="3.1,293.7 3.1,57 5.1,59 5.1,291.6 				"/>
			</g>
		</g>
		<g id="Acabamento-C" class="st6">
			
				<image style="overflow:visible;opacity:0.3;enable-background:new    ;" width="180" height="33" xlink:href="../../Documents/Sistema/Pedidos/static/Pedidos/images/C727B48C.png"  transform="matrix(0.9228 0 0 1 -3.099 271)">
			</image>
			<g>
				<polygon class="st0" points="3.1,293.7 5.1,291.6 150.6,291.6 152.7,293.7 				"/>
			</g>
		</g>
		<g id="Acabamento-B" class="st6">
			
				<image style="overflow:visible;opacity:0.3;enable-background:new    ;" width="33" height="268" xlink:href="../../Documents/Sistema/Pedidos/static/Pedidos/images/C727B485.png"  transform="matrix(1 0 0 0.9562 130 47.7327)">
			</image>
			<g>
				<polygon class="st0" points="152.7,57 152.7,293.7 150.6,291.6 150.6,59 				"/>
			</g>
		</g>
		<g id="Acabamento-A" class="st6">
			
				<image style="overflow:visible;opacity:0.3;enable-background:new    ;" width="180" height="34" xlink:href="../../Documents/Sistema/Pedidos/static/Pedidos/images/C727B486.png"  transform="matrix(0.8438 0 0 1 0.8218 46)">
			</image>
			<g>
				<polygon class="st0" points="5.1,59 3.1,57 152.7,57 150.6,59 				"/>
			</g>
		</g>
	</g>
	<g id="Puxadores_2_">
		<g id="Puxador-D">
			<text id="Tam-pux-D" transform="matrix(4.489659e-11 -1 1 4.489659e-11 -8.3213 192.4824)" class="st7 st8">100mm</text>
			<rect id="Puxador-esq-int" x="-6" y="56.9" class="st9" width="2.6" height="236.8"/>
			<rect id="Puxador-esq-trecho" x="-6" y="153.8" class="st9" width="2.6" height="43"/>
		</g>
		<g id="Puxador-C">
			<text id="Tam-pux-C" transform="matrix(1 0 0 1 60.5996 313.127)" class="st7 st8">100mm</text>
			<rect id="Puxador-sup-int_1_" x="3" y="301.2" class="st9" width="149.6" height="2.6"/>
			<rect id="Puxador-sup-trecho_1_" x="56.4" y="301.2" class="st9" width="43" height="2.6"/>
		</g>
		<g id="Puxador-B">
			<text id="Tam-pux-B" transform="matrix(-1.346898e-10 1 -1 -1.346898e-10 165.0195 158.0955)" class="st7 st8">100mm</text>
			<rect id="Puxador-dir-int" x="159.6" y="56.9" class="st9" width="2.6" height="236.8"/>
			<rect id="Puxador-dir-trecho" x="159.6" y="153.8" class="st9" width="2.6" height="43"/>
		</g>
		<g id="Puxador-A">
			<text id="Tam-pux-A" transform="matrix(1 0 0 1 60.6853 44.96)" class="st7 st8">100mm</text>
			<rect id="Puxador-sup-int" x="3.1" y="46.8" class="st9" width="149.6" height="2.6"/>
			<rect id="Puxador-sup-trecho" x="56.4" y="46.8" class="st9" width="43" height="2.6"/>
		</g>
	</g>
	<g id="PerfisPuxadores">
		<g id="PerfilPux-D">
			<g id="PerfilPux-D-Cava" class="st10">
				<g>
					
						<linearGradient id="SVGID_1_" gradientUnits="userSpaceOnUse" x1="-187.7436" y1="5.8975" x2="-183.0359" y2="5.8975" gradientTransform="matrix(-1 0 0 -1 -184.6733 181.2475)">
						<stop  offset="0" style="stop-color:#252525"/>
						<stop  offset="0.25" style="stop-color:#252525;stop-opacity:0.3"/>
						<stop  offset="0.5" style="stop-color:#F1F1F1"/>
						<stop  offset="0.5112" style="stop-color:#FFFFFF"/>
						<stop  offset="0.75" style="stop-color:#919191;stop-opacity:0.3"/>
						<stop  offset="1" style="stop-color:#252525"/>
					</linearGradient>
					<polyline class="st11" points="3.1,293.7 -1.6,293.7 -1.6,57 3.1,57 					"/>
				</g>
				<g class="st12">
					<polyline class="st13" points="3.1,293.7 -1.6,293.7 -1.6,57 3.1,57 					"/>
				</g>
			</g>
			<rect id="PerfilPux-D-detalhe" x="-3.4" y="57" class="st0" width="1.7" height="236.8"/>
		</g>
		<g id="PerfilPux-C">
			<g id="PerfilPux-C-Cava" class="st10">
				<g>
					
						<linearGradient id="SVGID_2_" gradientUnits="userSpaceOnUse" x1="-93.5561" y1="40.5658" x2="-88.8484" y2="40.5658" gradientTransform="matrix(-1.346898e-10 1 -1 -1.346898e-10 118.4158 387.2673)">
						<stop  offset="0" style="stop-color:#252525"/>
						<stop  offset="0.25" style="stop-color:#252525;stop-opacity:0.3"/>
						<stop  offset="0.5" style="stop-color:#F1F1F1"/>
						<stop  offset="0.5112" style="stop-color:#FFFFFF"/>
						<stop  offset="0.75" style="stop-color:#919191;stop-opacity:0.3"/>
						<stop  offset="1" style="stop-color:#252525"/>
					</linearGradient>
					<polyline class="st14" points="152.6,293.7 152.6,298.4 3.1,298.4 3.1,293.7 					"/>
				</g>
				<g class="st12">
					<polyline class="st13" points="152.6,293.7 152.6,298.4 3.1,298.4 3.1,293.7 					"/>
				</g>
			</g>
			<rect id="PerfilPux-C-detalhe" x="3.1" y="298.4" class="st0" width="149.6" height="1.7"/>
		</g>
		<g id="PerfilPux-B">
			<g id="PerfilPux-B-Cava" class="st10">
				<g>
					
						<linearGradient id="SVGID_3_" gradientUnits="userSpaceOnUse" x1="-247.3661" y1="145.35" x2="-242.6584" y2="145.35" gradientTransform="matrix(1 0 0 1 400 30)">
						<stop  offset="0" style="stop-color:#252525"/>
						<stop  offset="0.25" style="stop-color:#252525;stop-opacity:0.3"/>
						<stop  offset="0.5" style="stop-color:#F1F1F1"/>
						<stop  offset="0.5112" style="stop-color:#FFFFFF"/>
						<stop  offset="0.75" style="stop-color:#919191;stop-opacity:0.3"/>
						<stop  offset="1" style="stop-color:#252525"/>
					</linearGradient>
					<polyline class="st15" points="152.6,57 157.3,57 157.3,293.7 152.6,293.7 					"/>
				</g>
				<g class="st12">
					<polyline class="st13" points="152.6,57 157.3,57 157.3,293.7 152.6,293.7 					"/>
				</g>
			</g>
			<rect id="PerfilPux-B-detalhe" x="157.3" y="57" class="st0" width="1.7" height="236.8"/>
		</g>
		<g id="PerfilPux-A">
			<g id="PerfilPux-A-Cava" class="st10">
				<g>
					
						<linearGradient id="SVGID_4_" gradientUnits="userSpaceOnUse" x1="1.0268" y1="204.246" x2="5.7344" y2="204.246" gradientTransform="matrix(2.244830e-10 -1 1 2.244830e-10 -126.396 57.9802)">
						<stop  offset="0" style="stop-color:#252525"/>
						<stop  offset="0.25" style="stop-color:#252525;stop-opacity:0.3"/>
						<stop  offset="0.5" style="stop-color:#F1F1F1"/>
						<stop  offset="0.5112" style="stop-color:#FFFFFF"/>
						<stop  offset="0.75" style="stop-color:#919191;stop-opacity:0.3"/>
						<stop  offset="1" style="stop-color:#252525"/>
					</linearGradient>
					<polyline class="st16" points="3.1,57 3.1,52.2 152.6,52.2 152.6,57 					"/>
				</g>
				<g class="st12">
					<polyline class="st13" points="3.1,57 3.1,52.2 152.6,52.2 152.6,57 					"/>
				</g>
			</g>
			<rect id="PerfilPux-A-detalhe" x="3.1" y="50.5" class="st0" width="149.6" height="1.7"/>
		</g>
	</g>
	<g id="MedidaDesenho">
		<g id="Largura-Desenho">
			<text id="Medida-largura" transform="matrix(1 0 0 1 60.6856 352.6522)" class="st7 st8">100mm</text>
			<polygon id="Traco-largura" points="3.7,334.2 3.1,334.2 3.1,349 3.7,349 3.7,342.9 152,342.9 152,349 152.7,349 152.7,334.2 
				152,334.2 152,340.3 3.7,340.3 			"/>
		</g>
		<g id="Altura-Desenho">
			<text id="Medida-altura" transform="matrix(-1.346898e-10 1 -1 -1.346898e-10 212.3477 158.1368)" class="st7 st8">100mm</text>
			<polygon id="Traco-altura" points="214.6,57.9 214.6,57 199.9,57 199.9,57.9 206,57.9 206,292.7 199.9,292.7 199.9,293.7 
				214.6,293.7 214.6,292.7 208.5,292.7 208.5,57.9 			"/>
		</g>
	</g>
</g>
</svg>
