<?xml version="1.0" encoding="utf-8"?>
<!-- Generator: Adobe Illustrator 25.2.1, SVG Export Plug-In . SVG Version: 6.00 Build 0)  -->
<svg version="1.1" id="Camada_1" xmlns="http://www.w3.org/2000/svg" xmlns:xlink="http://www.w3.org/1999/xlink" x="0px" y="0px"
	 viewBox="0 0 528 329" enable-background="new 0 0 528 329" xml:space="preserve">
<g>
	<g>
		<defs>
			<path id="SVGID_1_" d="M505.5,12.8H22.2c-4.4,0-8.1,3.8-8.1,8.5v284.1c0,4.7,3.6,8.5,8.1,8.5h483.3c4.4,0,8.1-3.8,8.1-8.5V21.4
				C513.6,16.7,510,12.8,505.5,12.8z M499.5,299.2H28.2V27.7h471.4V299.2z"/>
		</defs>
		<clipPath id="SVGID_2_">
			<use xlink:href="#SVGID_1_"  overflow="visible"/>
		</clipPath>
		<g clip-path="url(#SVGID_2_)">
			
				<image overflow="visible" width="2201" height="1371" id="cor_perfil" xlink:href="8C730B1D.png"  transform="matrix(0.24 0 0 0.24 -4.000000e-02 0)">
			</image>
		</g>
		<g opacity="0.15" clip-path="url(#SVGID_2_)">
			
				<image overflow="visible" width="631" height="497" id="Sombra_baixo" xlink:href="8C730B1F.png"  transform="matrix(0.24 0 0 0.24 128.36 192.24)">
			</image>
		</g>
		<g display="none" clip-path="url(#SVGID_2_)">
			<linearGradient id="SVGID_3_" gradientUnits="userSpaceOnUse" x1="150.6766" y1="174.1695" x2="357.0362" y2="174.1695">
				<stop  offset="0" style="stop-color:#717171"/>
				<stop  offset="1" style="stop-color:#020203"/>
			</linearGradient>
			<path fill="url(#SVGID_3_)" d="M357,225.9H150.7V122.4H357V225.9z M152.4,224.3h202.9V124H152.4V224.3z"/>
		</g>
		<g clip-path="url(#SVGID_2_)">
			<path d="M505.5,316.2H22.2c-5.6,0-10.1-4.8-10.1-10.7V21.4c0-5.9,4.5-10.7,10.1-10.7h483.3c5.6,0,10.1,4.8,10.1,10.7v284.1
				C515.6,311.4,511.1,316.2,505.5,316.2z M22.2,14.9c-3.3,0-6.1,2.9-6.1,6.4v284.1c0,3.5,2.7,6.4,6.1,6.4h483.3
				c3.3,0,6.1-2.9,6.1-6.4V21.4c0-3.5-2.7-6.4-6.1-6.4H22.2z"/>
		</g>
	</g>
	
		<image overflow="visible" opacity="0.5" width="1965" height="1132" xlink:href="8C730B1A.png"  transform="matrix(0.24 0 0 0.24 20.12 27.6)">
	</image>
	<g opacity="0.45">
		<linearGradient id="SVGID_4_" gradientUnits="userSpaceOnUse" x1="18.2899" y1="162.4521" x2="301.975" y2="162.4521">
			<stop  offset="0" style="stop-color:#202121"/>
			<stop  offset="0.1127" style="stop-color:#252525"/>
			<stop  offset="0.2564" style="stop-color:#313031"/>
			<stop  offset="0.4169" style="stop-color:#484546"/>
			<stop  offset="0.5896" style="stop-color:#6B6768"/>
			<stop  offset="0.7721" style="stop-color:#A09D9E"/>
			<stop  offset="0.9601" style="stop-color:#ECEBEC"/>
			<stop  offset="1" style="stop-color:#FFFFFF"/>
		</linearGradient>
		<path fill="url(#SVGID_4_)" d="M24.5,298.7c-3.4,1.4-6.2-0.5-6.2-4.2V32.6c0-3.7,3-6.8,6.7-6.8h274.6c3.7,0,2.5,1,0.5,2.6
			L24.5,298.7z"/>
	</g>
</g>
</svg>
