<svg class="img-responsive" width="100%" viewBox="0 0 540 450" xmlns="http://www.w3.org/2000/svg" xmlns:xlink="http://www.w3.org/1999/xlink">
	<style type="text/css">
        .st0{display:none;fill:#BC4646;}
        .st1{opacity:0.45;}
        .st2{fill:url(#Reflexo_1_);}
        .st3{display:none;}
        .st4{display:inline;fill:#137009;}
        .st5{fill:#C4C7C5;}
        .st6{fill:#c0c0c0;}
        .st7{fill:#C4C7C5;}
        .st8{fill:#989EA6;}
        .st9{display:inline;}
        .st10{fill:#AF0E0E;}
        .st11{font-family:'ArialMT';}
        .st12{font-size:12px;}
        .st13{fill:#661D1D;}
        .st14{fill:#C5C7C6;}
        .st15{fill:#8E959C;}
    </style>
	<g transform="translate(250, 150)" id="Porta">
	<rect id="Pelicula" x="-83.2" y="-7.8" class="st0" width="214.8" height="127.6"/>
	<g id="Vidro" class="st3">

			<image overflow="visible" opacity="0.35" width="113" height="196" id="Incolor" xlink:href="Vidro-incolor.png"  transform="matrix(-1.545828e-10 1.1477 -1.0957 -1.475800e-10 135.21 -9.6513)">
		</image>
		<g opacity="0.45">

				<linearGradient id="Reflexo_1_" gradientUnits="userSpaceOnUse" x1="-883.0284" y1="451.1039" x2="-631.3284" y2="451.1039" gradientTransform="matrix(0.8594 0 0 0.8594 675.6954 -331.3855)">
				<stop  offset="0" style="stop-color:#DEF7FF"/>
				<stop  offset="9.815443e-02" style="stop-color:#BBD4DC"/>
				<stop  offset="0.2746" style="stop-color:#839CA4"/>
				<stop  offset="0.4461" style="stop-color:#546D75"/>
				<stop  offset="0.6084" style="stop-color:#304951"/>
				<stop  offset="0.7592" style="stop-color:#152E36"/>
				<stop  offset="0.8941" style="stop-color:#061F27"/>
				<stop  offset="1" style="stop-color:#001921"/>
			</linearGradient>
			<path id="Reflexo" fill="url(#Reflexo_1_)" d="M-73.3,120.1c-5.4,2.1-9.8-0.7-9.8-6.5V2.3c0-5.8,4.8-10.6,10.6-10.6h201.1
				c5.8,0,6.2,1.8,0.8,4L-73.3,120.1z"/>
		</g>
	</g>
	<g id="Divisores" class="st3">
		<rect id="Divisor-superior" x="59.2" y="-7.8" class="st4" width="4.3" height="127.6"/>
		<rect id="Divisor-inferior" x="-14.1" y="-7.8" class="st4" width="4.3" height="127.6"/>
		<rect id="Divisor-meio" x="22" y="-7.8" class="st4" width="4.3" height="127.6"/>
	</g>
	<g id="Perfis">
		<g id="Perfil-esquerda">
			<polygon id="barra_5_" class="st3 st14" points="-94.2,-18.8 -94.2,130.8 -83.2,119.8 -83.2,-7.8 			"/>
			<polygon id="acabamento-int_5_" class="st3 st15" points="-83.2,119.8 -83.2,-7.8 -81.1,-5.8 -81.1,117.7 			"/>
			<polygon id="acabamento-ext_5_" class="st3 st15" points="-94.2,130.8 -96.2,132.9 -96.2,-20.9 -94.2,-18.8 			"/>
		</g>
		<g id="Perfil-superior">
			<polygon id="barra" class="st3 st14" points="-83.2,-7.8 131.6,-7.8 142.6,-18.8 -94.2,-18.8 			"/>
			<polygon id="acabamento-int" class="st3 st15" points="129.5,-5.8 131.6,-7.8 -83.2,-7.8 -81.1,-5.8 			"/>
			<polygon id="acabamento-ext" class="st3 st15" points="-96.2,-20.9 144.6,-20.9 142.6,-18.8 -94.2,-18.8 			"/>
		</g>
		<g id="Perfil-inferior">
			<polygon id="barra_4_" class="st3 st14" points="-94.2,130.8 142.6,130.8 131.6,119.8 -83.2,119.8 			"/>
			<polygon id="acabamento-int_4_" class="st3 st15" points="-81.1,117.7 -83.2,119.8 131.6,119.8 129.5,117.7 			"/>
			<polygon id="acabamento-ext_2_" class="st3 st15" points="144.6,132.9 -96.2,132.9 -94.2,130.8 142.6,130.8 			"/>
		</g>
		<g id="Perfil-direita">
			<polygon id="barra_3_" class="st3 st14" points="131.6,-7.8 131.6,119.8 142.6,130.8 142.6,-18.8 			"/>
			<polygon id="acabamento-int_2_" class="st3 st15" points="131.6,-7.8 131.6,119.8 129.5,117.7 129.5,-5.8 			"/>
			<polygon id="acabamento-ext_1_" class="st3 st15" points="144.6,132.9 142.6,130.8 142.6,-18.8 144.6,-20.9 			"/>
		</g>
	</g>
	<g id="Puxadores_2_" class="st3">
		<g id="Puxador-esquerda">
			<rect id="Puxador-esquerda-int" x="-104.3" y="-20.9" class="st10" width="2.6" height="153.7"/>
			<rect id="Puxador-esquerda-trecho" x="-104.3" y="34.5" class="st10" width="2.6" height="43"/>
			<text id="tamanho-puxador-esquerda" transform="matrix(4.489659e-11 -1 1 4.489659e-11 -106.1504 71.936)" class="st11 st12">100mm</text>
		</g>
		<g id="Puxador-superior">
			<rect id="Puxador-superior-int" x="-96.2" y="-28.3" class="st10" width="240.8" height="2.6"/>
			<rect id="Puxador-superior-trecho" x="2.7" y="-28.3" class="st10" width="43" height="2.6"/>
			<text id="tam-puxador-superior" transform="matrix(1 0 0 1 8.3589 -31.1504)" class="st11 st12">100mm</text>
		</g>
		<g id="Puxador-inferior">
			<rect id="Puxador-inferior-int" x="-96.2" y="137.2" class="st10" width="240.8" height="2.6"/>
			<rect id="Puxador-inferior-trecho" x="2.7" y="137.2" class="st10" width="43" height="2.6"/>
			<text id="tam-puxador-inferior" transform="matrix(1 0 0 1 8.3574 150.1904)" class="st11 st12">100mm</text>
		</g>
		<g id="Puxador-direita">
			<rect id="Puxador-direita-int" x="150.1" y="-20.8" class="st10" width="2.6" height="153.7"/>
			<rect id="Puxador-direita-trecho" x="150.1" y="34.5" class="st10" width="2.6" height="43"/>
			<text id="tam-puxador-direita" transform="matrix(4.489659e-11 -1 1 4.489659e-11 162.0166 70.8633)" class="st11 st12">100mm</text>
		</g>
	</g>
	<g id="Perfis_Puxadores" class="">
		<g id="PerfilPux_Esquerda" class="st3">
			<polygon id="Barra_Esquerda" class="st10" points="-96.2,-21 -101.9,-21 -101.9,132.9 -96.2,132.9 -96.2,132.8 -94.2,130.7
				-83.2,119.7 -83.2,-7.9 -94.2,-18.9 			"/>
			<polygon id="Acabamento-Int" class="st13" points="-83.2,119.7 -83.2,-7.9 -81.1,-5.9 -81.1,117.7 			"/>
			<rect id="Acabamento-Ext" x="-101.8" y="-21" class="st13" width="1.6" height="153.8"/>
		</g>
		<g id="PerfilPux_Superior" class="st3">
			<polygon id="Barra_Superior" class="st10" points="-96.2,-20.8 -96.2,-20.8 -94.2,-18.7 -83.2,-7.7 131.6,-7.7 142.6,-18.7
				144.6,-20.8 144.6,-20.8 144.6,-24.1 -96.2,-24.1 			"/>
			<polygon id="Acabamento-Int" class="st13" points="129.5,-5.8 131.6,-7.7 -83.2,-7.7 -81.1,-5.8 			"/>
			<rect id="Acabamento-Ext" x="-96.2" y="-25.7" class="st13" width="240.8" height="1.6"/>
		</g>
		<g id="PerfilPux_Inferior" class="st3">
			<polygon id="Barra_Inferior" class="st10" points="144.6,132.8 144.6,132.8 142.5,130.7 131.5,119.7 -83.2,119.7 -94.2,130.7
				-96.2,132.8 -96.2,132.8 -96.2,136 144.6,136 			"/>
			<polygon id="Acabamento-Int" class="st13" points="-81.2,117.7 -83.2,119.7 131.5,119.7 129.5,117.7 			"/>
			<rect id="Acabamento-Ext" x="-96.2" y="136.1" class="st13" width="240.8" height="1.6"/>
		</g>
		<g id="PerfilPux_Direita" class="st3">
			<polygon id="Barra_Direita" class="st10" points="144.6,132.9 150.2,132.9 150.2,-21 144.6,-21 144.6,-20.9 142.5,-18.8 131.5,-7.8
				131.5,119.8 142.5,130.8 			"/>
			<polygon id="Acabamento-Int" class="st13" points="131.5,-7.8 131.5,119.8 129.5,117.8 129.5,-5.8 			"/>
			<rect id="Acabamento-Ext" x="148.6" y="-21" class="st13" width="1.6" height="153.8"/>
		</g>
	</g>
	<g id="Medida_Desenho" class="st3">
		<text id="Medida-largura" transform="matrix(1 0 0 1 5.0029 170.002)" class="st11 st12">2000mm</text>
		<text id="Medida-altura" transform="matrix(4.489659e-11 -1 1 4.489659e-11 195.2256 74.9429)" class="st11 st12">2000mm</text>
		<polygon id="Traco-largura" points="141.6,165 144.6,165 144.6,150.2 141.6,150.2 141.6,156.3 -93.2,156.3 -93.2,150.2
			-96.2,150.2 -96.2,165 -93.2,165 -93.2,158.9 141.6,158.9"/>
		<polygon id="Traco-altura" points="174.9,131 174.9,132.9 189.6,132.9 189.6,131 183.5,131 183.5,-18.9 189.6,-18.9 189.6,-20.9
			174.9,-20.9 174.9,-18.9 180.9,-18.9 180.9,131"/>
	</g>
</g>
</svg>
